<svg id="Layer_1" data-name="Layer 1" xmlns="http://www.w3.org/2000/svg" xmlns:xlink="http://www.w3.org/1999/xlink" viewBox="0 0 82.05 99.69"><defs><style>.cls-1{fill:url(#radial-gradient);}</style><radialGradient id="radial-gradient" cx="30.48" cy="49.34" r="54.87" gradientUnits="userSpaceOnUse"><stop offset="0.1" stop-color="#39a7df"/><stop offset="0.83" stop-color="#1e72b8"/></radialGradient></defs><path class="cls-1" d="M32.2,99.69h0A49.61,49.61,0,0,0,64.4,87.89H0A49.64,49.64,0,0,0,32.2,99.69Z"/><path class="cls-1" d="M32.21,0h0A49.64,49.64,0,0,0,0,11.8H64.4A49.61,49.61,0,0,0,32.21,0Z"/><path class="cls-1" d="M70.25,17.65q-1.44-1.71-3-3.28l-.91.89-29.47,29a7.17,7.17,0,0,0-4.63-1.67,7.27,7.27,0,1,0,0,14.53,7.12,7.12,0,0,0,4.63-1.67l29.47,29,.92.9c1.06-1,2.06-2.14,3-3.28a49.82,49.82,0,0,0,0-64.39Z"/></svg>